<svg width="20" height="20" viewBox="0 0 20 20" fill="none" xmlns="http://www.w3.org/2000/svg">
<path fill-rule="evenodd" clip-rule="evenodd" d="M8.99997 5.32107e-06V6.71585C7.22691 6.53519 5.5877 5.87916 4.34705 4.86613C3.68204 4.32313 3.16014 3.70235 2.7884 3.03792C4.39129 1.36149 6.56741 0.24273 8.99997 5.32107e-06ZM11 0V6.71585C12.773 6.53519 14.4122 5.87916 15.6529 4.86613C16.3179 4.32312 16.8398 3.70233 17.2116 3.03789C15.6087 1.36147 13.4325 0.242712 11 0ZM18.5104 4.72028C18.0718 5.33944 17.5368 5.90987 16.9178 6.4153C15.2983 7.73772 13.2044 8.53788 11 8.72436L11 11.2752C11.9319 11.354 12.8487 11.5429 13.722 11.8382C14.9062 12.2388 15.9934 12.8295 16.9178 13.5843C17.5327 14.0864 18.069 14.6558 18.5106 15.2793C19.455 13.7451 20 11.9365 20 10C20 8.0633 19.4549 6.25456 18.5104 4.72028ZM17.2116 16.962C16.8371 16.2931 16.3125 15.672 15.6529 15.1335C14.9265 14.5403 14.0539 14.0618 13.0812 13.7328C12.416 13.5078 11.7157 13.3568 11 13.2838V20C13.4326 19.7573 15.6087 18.6385 17.2116 16.962ZM8.99997 20L8.99997 13.2838C8.28426 13.3568 7.58399 13.5078 6.91873 13.7328C5.946 14.0618 5.07344 14.5403 4.34705 15.1335C3.6875 15.672 3.16285 16.2931 2.78832 16.962C4.39121 18.6385 6.56737 19.7573 8.99997 20ZM1.48933 15.2793C1.93096 14.6558 2.46722 14.0864 3.08211 13.5843C4.00654 12.8295 5.09378 12.2388 6.27795 11.8382C7.15126 11.5429 8.06806 11.354 8.99997 11.2752V8.72436C6.79552 8.53787 4.70167 7.73772 3.08211 6.4153C2.46312 5.90988 1.9282 5.33947 1.48958 4.72032C0.545122 6.25459 0 8.06332 0 10C0 11.9365 0.545024 13.7451 1.48933 15.2793Z" fill="#6C6C6C"/>
</svg>
