<svg width="20" height="12" viewBox="0 0 20 12" fill="none" xmlns="http://www.w3.org/2000/svg">
<path fill-rule="evenodd" clip-rule="evenodd" d="M0.292893 0.292893C0 0.585786 0 1.05719 0 2V10C0 10.9428 0 11.4142 0.292893 11.7071C0.585786 12 1.05719 12 2 12H13.968C14.9422 12 15.4293 12 15.8493 11.7916C16.2693 11.5832 16.564 11.1953 17.1532 10.4196L18.6725 8.41963L18.6725 8.41962C19.5568 7.25554 19.999 6.6735 19.999 6C19.999 5.32649 19.5568 4.74445 18.6725 3.58037L17.1532 1.58037C16.564 0.804662 16.2693 0.416809 15.8493 0.208404C15.4293 0 14.9422 0 13.968 0H2C1.05719 0 0.585786 0 0.292893 0.292893ZM13.6737 8C14.9324 8 15.9527 7.10457 15.9527 6C15.9527 4.89543 14.9324 4 13.6737 4C12.4151 4 11.3948 4.89543 11.3948 6C11.3948 7.10457 12.4151 8 13.6737 8Z" fill="#CE8D0D"/>
</svg>
