<svg width="20" height="20" viewBox="0 0 20 20" fill="none" xmlns="http://www.w3.org/2000/svg">
<path d="M12.6316 17.7778C12.0502 17.7778 11.5789 18.2752 11.5789 18.8889C11.5789 19.5025 12.0502 20 12.6316 20H17.8947C19.0574 20 20 19.0051 20 17.7778V2.22222C20 0.994923 19.0574 0 17.8947 0H12.6316C12.0502 0 11.5789 0.49746 11.5789 1.11111C11.5789 1.72476 12.0502 2.22222 12.6316 2.22222H17.8947V17.7778H12.6316Z" fill="#6C6C6C"/>
<path d="M14.4354 10.7784C14.5329 10.6736 14.6068 10.5534 14.657 10.4253C14.7081 10.2953 14.7364 10.1528 14.7368 10.0033L14.7368 10L14.7368 9.99667C14.736 9.71342 14.6333 9.43044 14.4285 9.21432L10.218 4.76988C9.80693 4.33597 9.14044 4.33597 8.72936 4.76988C8.31828 5.2038 8.31828 5.90731 8.72936 6.34123L11.1429 8.88889H1.05263C0.471279 8.88889 0 9.38635 0 10C0 10.6137 0.471279 11.1111 1.05263 11.1111H11.1429L8.72936 13.6588C8.31828 14.0927 8.31828 14.7962 8.72936 15.2301C9.14044 15.664 9.80693 15.664 10.218 15.2301L14.4278 10.7865L14.4354 10.7784Z" fill="#6C6C6C"/>
</svg>
