<svg width="25" height="25" viewBox="0 0 25 25" fill="none" xmlns="http://www.w3.org/2000/svg">
<path d="M18.4624 0.406796C19.0047 -0.135599 19.8841 -0.135599 20.4265 0.406796L24.5932 4.57346C25.1356 5.11586 25.1356 5.99525 24.5932 6.53765L12.0932 19.0376C11.8327 19.2981 11.4795 19.4444 11.1111 19.4444H6.94444C6.17738 19.4444 5.55556 18.8226 5.55556 18.0556V13.8889C5.55556 13.5205 5.70188 13.1673 5.96235 12.9068L18.4624 0.406796ZM8.33333 14.4642V16.6667H10.5358L21.6469 5.55556L19.4444 3.35307L8.33333 14.4642ZM0 5.55556C0 4.02143 1.24365 2.77778 2.77778 2.77778H9.72222C10.4893 2.77778 11.1111 3.3996 11.1111 4.16667C11.1111 4.93373 10.4893 5.55556 9.72222 5.55556H2.77778V22.2222H19.4444V15.2778C19.4444 14.5107 20.0663 13.8889 20.8333 13.8889C21.6004 13.8889 22.2222 14.5107 22.2222 15.2778V22.2222C22.2222 23.7563 20.9786 25 19.4444 25H2.77778C1.24365 25 0 23.7563 0 22.2222V5.55556Z" fill="#F6F6F6"/>
</svg>
