<svg width="20" height="20" viewBox="0 0 20 20" fill="none" xmlns="http://www.w3.org/2000/svg">
<path fill-rule="evenodd" clip-rule="evenodd" d="M0.392088 6.44909C0 7.19275 0 8.03877 0 9.73081V15.0152C0 17.3651 0 18.54 0.836838 19.27C1.64355 19.9737 2.92423 19.9991 5.42856 20V13.7691C5.42856 12.4046 6.6485 11.5229 7.85713 11.5229H12.1428C13.3515 11.5229 14.5714 12.4046 14.5714 13.7691V20C17.0758 19.9991 18.3564 19.9737 19.1632 19.27C20 18.54 20 17.3651 20 15.0152V9.73081C20 8.03877 20 7.19275 19.6079 6.44909C19.2158 5.70544 18.4795 5.15485 17.0068 4.05369L15.5782 2.98552C12.9163 0.995172 11.5854 0 10 0C8.41461 0 7.08367 0.995171 4.42179 2.98551L4.42179 2.98552L2.99322 4.05369C1.52052 5.15485 0.784175 5.70544 0.392088 6.44909ZM12.5714 20V13.7691C12.5714 13.749 12.5645 13.7015 12.4956 13.6414C12.4248 13.5796 12.3031 13.5229 12.1428 13.5229H7.85713C7.69691 13.5229 7.5752 13.5796 7.50435 13.6414C7.43549 13.7015 7.42856 13.749 7.42856 13.7691V20H12.5714Z" fill="#CE8D0D"/>
</svg>
