<svg width="20" height="20" viewBox="0 0 20 20" fill="none" xmlns="http://www.w3.org/2000/svg">
<path fill-rule="evenodd" clip-rule="evenodd" d="M20 4.84659V4C20 1.79086 15.5228 0 10 0C4.47715 0 0 1.79086 0 4V4.84659C0.117654 5.04377 0.279525 5.24411 0.491211 5.44736C1.01907 5.9542 1.79861 6.4173 2.74131 6.79438C4.68127 7.57036 7.29322 8 10 8C12.7068 8 15.3187 7.57036 17.2587 6.79438C18.2014 6.4173 18.9809 5.9542 19.5088 5.44736C19.7205 5.24411 19.8823 5.04377 20 4.84659ZM20 7.609C19.3948 8.02162 18.7103 8.36782 18.0015 8.65133C15.764 9.54633 12.8856 10 10 10C7.1144 10 4.23603 9.54633 1.99853 8.65133C1.28974 8.36782 0.605229 8.02162 0 7.609V10.8466C0.117654 11.0438 0.279525 11.2441 0.491211 11.4474C1.01907 11.9542 1.79861 12.4173 2.74131 12.7944C4.68127 13.5704 7.29322 14 10 14C12.7068 14 15.3187 13.5704 17.2587 12.7944C18.2014 12.4173 18.9809 11.9542 19.5088 11.4474C19.7205 11.2441 19.8823 11.0438 20 10.8466V7.609ZM20 13.609C19.3948 14.0216 18.7103 14.3678 18.0015 14.6513C15.764 15.5463 12.8856 16 10 16C7.1144 16 4.23603 15.5463 1.99853 14.6513C1.28974 14.3678 0.605229 14.0216 0 13.609V16C0 18.2091 4.47715 20 10 20C15.5228 20 20 18.2091 20 16V13.609Z" fill="#CE8D0D"/>
</svg>
