<svg width="11" height="10" viewBox="0 0 11 10" fill="none" xmlns="http://www.w3.org/2000/svg">
<path d="M5.29851 0.20136C5.56699 0.469839 5.56699 0.90513 5.29851 1.17361L2.34722 4.12491H10.3123C10.692 4.12491 10.9997 4.4327 10.9997 4.81239C10.9997 5.19208 10.692 5.49987 10.3123 5.49987H2.34722L5.29851 8.45117C5.56699 8.71965 5.56699 9.15494 5.29851 9.42342C5.03004 9.6919 4.59474 9.6919 4.32626 9.42342L0.201359 5.29851C0.0724312 5.16959 0 4.99472 0 4.81239C0 4.63006 0.0724312 4.45519 0.201359 4.32627L4.32626 0.201359C4.59474 -0.0671198 5.03004 -0.0671198 5.29851 0.20136Z" fill="#F6F6F6"/>
</svg>
