<svg width="16" height="14" viewBox="0 0 16 14" fill="none" xmlns="http://www.w3.org/2000/svg">
<path d="M8.29289 0.292893C7.90237 0.683418 7.90237 1.31658 8.29289 1.70711L12.5858 6H1C0.447715 6 0 6.44771 0 7C0 7.55228 0.447715 8 1 8H12.5858L8.29289 12.2929C7.90237 12.6834 7.90237 13.3166 8.29289 13.7071C8.68342 14.0976 9.31658 14.0976 9.70711 13.7071L15.7071 7.70711C15.8946 7.51957 16 7.26522 16 7C16 6.73478 15.8946 6.48043 15.7071 6.29289L9.70711 0.292893C9.31658 -0.0976311 8.68342 -0.0976311 8.29289 0.292893Z" fill="#808080"/>
</svg>
