<svg width="19" height="20" viewBox="0 0 19 20" fill="none" xmlns="http://www.w3.org/2000/svg">
<path d="M8.50257 0.270177L1.32618 3.47338C0.442161 3.86797 0.000150931 4.06526 0.000150931 4.39133C0.000150931 4.7174 0.442162 4.91469 1.32618 5.30928L8.50257 8.51248C8.9061 8.6926 9.10786 8.78266 9.32203 8.78266C9.53619 8.78266 9.73796 8.6926 10.1415 8.51248L17.3179 5.30928C18.2019 4.91469 18.6439 4.7174 18.6439 4.39133C18.6439 4.06526 18.2019 3.86796 17.3179 3.47338L10.1415 0.270177C9.73796 0.0900598 9.53619 1.35562e-06 9.32203 1.35562e-06C9.10786 1.35562e-06 8.9061 0.0900599 8.50257 0.270177Z" fill="#CE8D0D"/>
<path fill-rule="evenodd" clip-rule="evenodd" d="M3.05105 8.31237C3.62232 8.57821 4.26616 8.86559 4.98258 9.18536L7.68296 10.3907L7.68297 10.3907C8.49002 10.7509 8.89355 10.931 9.32188 10.931C9.7502 10.931 10.1537 10.7509 10.9608 10.3907L13.6612 9.18537C14.3776 8.86559 15.0214 8.57821 15.5927 8.31237L17.3177 9.08234C18.2017 9.47692 18.6438 9.67422 18.6438 10.0003C18.6438 10.3264 18.2017 10.5236 17.3177 10.9182L10.1413 14.1214C9.73781 14.3016 9.53604 14.3916 9.32188 14.3916C9.10771 14.3916 8.90595 14.3016 8.50242 14.1214L1.32603 10.9182C0.442011 10.5236 0 10.3264 0 10.0003C0 9.67422 0.44201 9.47692 1.32603 9.08234L1.32603 9.08234L3.05105 8.31237Z" fill="#CE8D0D"/>
<path fill-rule="evenodd" clip-rule="evenodd" d="M3.05039 13.9211C3.62183 14.187 4.26591 14.4745 4.98261 14.7944L7.68299 15.9997L7.683 15.9997C8.49005 16.3599 8.89358 16.5401 9.32191 16.5401C9.75023 16.5401 10.1538 16.3599 10.9608 15.9997L13.6612 14.7944C14.3779 14.4745 15.022 14.187 15.5934 13.9211L17.3177 14.6907C18.2017 15.0853 18.6438 15.2826 18.6438 15.6087C18.6438 15.9348 18.2017 16.1321 17.3177 16.5266L10.1413 19.7298C9.73781 19.91 9.53604 20 9.32188 20C9.10771 20 8.90595 19.91 8.50242 19.7298L1.32603 16.5266C0.442011 16.1321 0 15.9348 0 15.6087C0 15.2826 0.44201 15.0853 1.32603 14.6907L1.32603 14.6907L3.05039 13.9211Z" fill="#CE8D0D"/>
</svg>
