<svg width="74" height="82" viewBox="0 0 74 82" fill="none" xmlns="http://www.w3.org/2000/svg">
<path fill-rule="evenodd" clip-rule="evenodd" d="M32.7999 0C38.9462 0 43.8709 0 47.8757 0.301711C47.4068 1.47626 47.149 2.75787 47.149 4.0997L47.149 6.14969L45.099 6.14969C39.4381 6.14969 34.849 10.7388 34.849 16.3997C34.849 22.0606 39.4381 26.6496 45.099 26.6496H47.149V28.6996C47.149 34.3605 51.7381 38.9496 57.399 38.9496C60.7525 38.9496 63.7298 37.3392 65.5998 34.8495V49.1999C65.5998 64.6619 65.5998 72.3929 60.7964 77.1963C55.9929 81.9998 48.2619 81.9998 32.7999 81.9998C17.3379 81.9998 9.60687 81.9998 4.80343 77.1963C0 72.3929 0 64.6619 0 49.1999V32.7999C0 17.3379 0 9.60687 4.80343 4.80344L4.80344 4.80343C9.60687 0 17.3379 0 32.7999 0ZM16.3998 36.8995C14.1354 36.8995 12.2998 38.7351 12.2998 40.9995C12.2998 43.2638 14.1354 45.0995 16.3998 45.0995H32.7997C35.0641 45.0995 36.8997 43.2638 36.8997 40.9995C36.8997 38.7351 35.0641 36.8995 32.7997 36.8995H16.3998ZM16.3998 49.1995C14.1354 49.1995 12.2998 51.0351 12.2998 53.2994C12.2998 55.5638 14.1354 57.3994 16.3998 57.3994L40.9997 57.3994C43.264 57.3994 45.0997 55.5638 45.0997 53.2994C45.0997 51.0351 43.2641 49.1995 40.9997 49.1995L16.3998 49.1995ZM16.3998 61.4994C14.1354 61.4994 12.2998 63.335 12.2998 65.5994C12.2998 67.8638 14.1354 69.6994 16.3998 69.6994H32.7997C35.0641 69.6994 36.8997 67.8638 36.8997 65.5994C36.8997 63.335 35.0641 61.4994 32.7997 61.4994H16.3998Z" fill="#1A1E3B"/>
<path d="M57.4012 4.0998L57.4012 28.6997" stroke="#1A1E3B" stroke-width="8.11756" stroke-linecap="round"/>
<path d="M69.7006 16.3997L45.1007 16.3997" stroke="#1A1E3B" stroke-width="8.11756" stroke-linecap="round"/>
</svg>
