<svg width="18" height="20" viewBox="0 0 18 20" fill="none" xmlns="http://www.w3.org/2000/svg">
<path d="M9 0C9.62132 0 10.125 0.447715 10.125 1V11.5858L12.7045 9.29289C13.1438 8.90237 13.8562 8.90237 14.2955 9.29289C14.7348 9.68342 14.7348 10.3166 14.2955 10.7071L9.7955 14.7071C9.35616 15.0976 8.64384 15.0976 8.2045 14.7071L3.7045 10.7071C3.26517 10.3166 3.26517 9.68342 3.7045 9.29289C4.14384 8.90237 4.85615 8.90237 5.2955 9.29289L7.875 11.5858V1C7.875 0.447715 8.37868 0 9 0ZM1.125 15C1.74632 15 2.25 15.4477 2.25 16V18H15.75V16C15.75 15.4477 16.2537 15 16.875 15C17.4963 15 18 15.4477 18 16V18C18 19.1046 16.9926 20 15.75 20H2.25C1.00736 20 0 19.1046 0 18V16C0 15.4477 0.50368 15 1.125 15Z" fill="#CE8D0D"/>
</svg>
