<svg width="14" height="14" viewBox="0 0 14 14" fill="none" xmlns="http://www.w3.org/2000/svg">
<path d="M7 0C7.26514 0 7.50752 0.149801 7.6261 0.386949L9.43133 3.99741L13.4007 4.57478C13.6644 4.61312 13.8834 4.7978 13.9657 5.05118C14.048 5.30456 13.9794 5.5827 13.7887 5.76868L10.8997 8.58544L11.5495 12.5569C11.5925 12.8194 11.483 13.0835 11.2669 13.2386C11.0509 13.3937 10.7656 13.413 10.5306 13.2883L7 11.4149L3.46936 13.2883C3.23442 13.413 2.94913 13.3937 2.73307 13.2386C2.51701 13.0835 2.4075 12.8194 2.45045 12.5569L3.10033 8.58544L0.21135 5.76868C0.0205963 5.5827 -0.0480458 5.30456 0.0342786 5.05118C0.116603 4.7978 0.33562 4.61312 0.599261 4.57478L4.56867 3.99741L6.3739 0.386949C6.49248 0.149801 6.73486 0 7 0ZM7 2.26524L5.65735 4.95054C5.55491 5.15542 5.3587 5.29722 5.13201 5.3302L2.20389 5.7561L4.33868 7.83753C4.50226 7.99702 4.57771 8.2263 4.54082 8.45177L4.06001 11.39L6.6719 10.0041C6.87709 9.89525 7.12291 9.89525 7.3281 10.0041L9.93999 11.39L9.45918 8.45177C9.42229 8.2263 9.49774 7.99702 9.66132 7.83753L11.7961 5.7561L8.86799 5.3302C8.6413 5.29722 8.44509 5.15542 8.34265 4.95054L7 2.26524Z" fill="#CE8D0D"/>
</svg>
