<svg width="25" height="33" viewBox="0 0 25 33" fill="none" xmlns="http://www.w3.org/2000/svg">
<path d="M6.09778 11.0482C6.09778 9.11752 3.52993 8.60578 2.84867 10.4122C1.20073 14.782 0 18.691 0 20.8044C0 27.5398 5.46013 33 12.1956 33C18.931 33 24.3911 27.5398 24.3911 20.8044C24.3911 18.5338 23.0051 14.1906 21.1677 9.43028C18.7874 3.26374 17.5973 0.180465 16.1282 0.0143929C15.6581 -0.0387474 15.1453 0.0567934 14.7259 0.275647C13.4151 0.959603 13.4151 4.32246 13.4151 11.0482C13.4151 13.0688 11.7771 14.7068 9.75644 14.7068C7.73582 14.7068 6.09778 13.0688 6.09778 11.0482Z" fill="white"/>
</svg>
