<svg width="21" height="20" viewBox="0 0 21 20" fill="none" xmlns="http://www.w3.org/2000/svg">
<path fill-rule="evenodd" clip-rule="evenodd" d="M12.8669 0.580669C12.0219 0.206683 11.0889 0 10.1121 0C6.64987 0 3.73815 2.59666 3.34339 6.03632L3.06485 8.46333C3.02542 8.80682 3.00571 8.97857 2.97897 9.14748C2.83053 10.0851 2.51639 10.9888 2.05125 11.8164C1.96746 11.9654 1.87639 12.1124 1.69426 12.4063L1.00072 13.5253C0.225661 14.7759 -0.161867 15.4012 0.063743 15.8898C0.0848253 15.9355 0.109321 15.9795 0.137023 16.0214C0.433469 16.4706 1.16912 16.4706 2.64042 16.4706H17.5838C19.0551 16.4706 19.7908 16.4706 20.0872 16.0214C20.1149 15.9795 20.1394 15.9355 20.1605 15.8898C20.3861 15.4012 19.9986 14.7759 19.2235 13.5253L18.53 12.4063L18.5299 12.4062C18.3478 12.1123 18.2568 11.9654 18.173 11.8164C17.7078 10.9888 17.3937 10.0851 17.2453 9.14748C17.2322 9.06514 17.2208 8.98213 17.2081 8.87889C14.3844 8.77847 11.9728 6.50819 11.9728 3.52941C11.9728 2.42405 12.3049 1.41624 12.8669 0.580669ZM15.2837 2.3772C16.0997 3.32754 16.6603 4.50925 16.8528 5.82176C15.7757 5.58032 14.9728 4.64564 14.9728 3.52941C14.9728 3.11082 15.0857 2.71775 15.2837 2.3772Z" fill="#6C6C6C"/>
<path d="M6.46668 16.4706C6.46668 16.9341 6.56097 17.393 6.74418 17.8212C6.92738 18.2494 7.19592 18.6385 7.53444 18.9662C7.87296 19.294 8.27484 19.554 8.71715 19.7313C9.15945 19.9087 9.6335 20 10.1122 20C10.591 20 11.065 19.9087 11.5073 19.7313C11.9496 19.554 12.3515 19.294 12.6901 18.9662C13.0286 18.6385 13.2971 18.2494 13.4803 17.8212C13.6635 17.393 13.7578 16.9341 13.7578 16.4706L10.1122 16.4706H6.46668Z" fill="#6C6C6C"/>
<path d="M17.403 6.38234C19.0061 6.38234 20.3334 5.12017 20.3334 3.52939C20.3334 1.93862 19.0061 0.676453 17.403 0.676453C15.8 0.676453 14.4727 1.93862 14.4727 3.52939C14.4727 5.12017 15.8 6.38234 17.403 6.38234Z" fill="#6C6C6C" stroke="#6C6C6C"/>
</svg>
