<svg width="18" height="20" viewBox="0 0 18 20" fill="none" xmlns="http://www.w3.org/2000/svg">
<path d="M5 6L5 5C5 2.79086 6.79086 1 9 1V1C11.2091 1 13 2.79086 13 5L13 6" stroke="#6C6C6C" stroke-width="2" stroke-linecap="round"/>
<path fill-rule="evenodd" clip-rule="evenodd" d="M0.585786 5.58579C0 6.17157 0 7.11438 0 9V12C0 15.7712 0 17.6569 1.17157 18.8284C2.34315 20 4.22876 20 8 20H10C13.7712 20 15.6569 20 16.8284 18.8284C18 17.6569 18 15.7712 18 12V9C18 7.11438 18 6.17157 17.4142 5.58579C16.8284 5 15.8856 5 14 5H4C2.11438 5 1.17157 5 0.585786 5.58579ZM7 10C7 9.44772 6.55228 9 6 9C5.44772 9 5 9.44772 5 10V12C5 12.5523 5.44772 13 6 13C6.55228 13 7 12.5523 7 12V10ZM13 10C13 9.44772 12.5523 9 12 9C11.4477 9 11 9.44772 11 10V12C11 12.5523 11.4477 13 12 13C12.5523 13 13 12.5523 13 12V10Z" fill="#6C6C6C"/>
</svg>
